<?xml version="1.0" encoding="UTF-8" standalone="no"?>
<svg
   xmlns:dc="http://purl.org/dc/elements/1.1/"
   xmlns:cc="http://creativecommons.org/ns#"
   xmlns:rdf="http://www.w3.org/1999/02/22-rdf-syntax-ns#"
   xmlns:svg="http://www.w3.org/2000/svg"
   xmlns="http://www.w3.org/2000/svg"
   xmlns:sodipodi="http://sodipodi.sourceforge.net/DTD/sodipodi-0.dtd"
   xmlns:inkscape="http://www.inkscape.org/namespaces/inkscape"
   sodipodi:docname="Bimetrical_icon_document_2_black.svg"
   inkscape:version="1.0 (4035a4fb49, 2020-05-01)"
   id="bimetrical-icon-document-2-white"
   version="1.1"
   viewBox="0 0 31.521214 35.999999"
   height="36"
   width="31.521214">
  <defs
     id="defs-bimetrical-icon-document-2-white" />
  <sodipodi:namedview
     inkscape:snap-smooth-nodes="true"
     inkscape:snap-intersection-paths="true"
     inkscape:document-rotation="0"
     inkscape:window-maximized="1"
     inkscape:window-y="-8"
     inkscape:window-x="-8"
     inkscape:window-height="1017"
     inkscape:window-width="1920"
     fit-margin-bottom="0"
     fit-margin-right="0"
     fit-margin-left="0"
     fit-margin-top="0"
     showgrid="false"
     inkscape:current-layer="bimetrical-layer-1"
     inkscape:document-units="mm"
     inkscape:cy="21.409012"
     inkscape:cx="-25.601232"
     inkscape:zoom="8"
     inkscape:pageshadow="2"
     inkscape:pageopacity="0.0"
     borderopacity="1.0"
     bordercolor="#666666"
     pagecolor="#ffffff"
     id="base" />
  <metadata
     id="metadata-bimetrical-icon-document-2-white">
    <rdf:RDF>
      <cc:Work
         rdf:about="">
        <dc:format>image/svg+xml</dc:format>
        <dc:type
           rdf:resource="http://purl.org/dc/dcmitype/StillImage" />
        <dc:title>bimetrical icon document</dc:title>
        <dc:creator>
          <cc:Agent>
            <dc:title>J. Xavier Atero</dc:title>
          </cc:Agent>
        </dc:creator>
        <dc:subject>
          <rdf:Bag>
            <rdf:li>bimetrical</rdf:li>
            <rdf:li>document</rdf:li>
            <rdf:li>icon</rdf:li>
          </rdf:Bag>
        </dc:subject>
        <dc:description>Document icon</dc:description>
        <dc:identifier>bimetrical-icon-document</dc:identifier>
        <dc:rights>
          <cc:Agent>
            <dc:title>Bimetrical S.L.</dc:title>
          </cc:Agent>
        </dc:rights>
        <dc:date>2021-09-22T12:02:10</dc:date>
        <dc:publisher>
          <cc:Agent>
            <dc:title>Bimetrical S.L.</dc:title>
          </cc:Agent>
        </dc:publisher>
        <cc:license
           rdf:resource="http://creativecommons.org/licenses/by-sa/4.0/" />
        <dc:source>J. Xavier Atero's own work for Bimetrical S.L.</dc:source>
        <dc:language>english</dc:language>
      </cc:Work>
      <cc:License
         rdf:about="http://creativecommons.org/licenses/by-sa/4.0/">
        <cc:permits
           rdf:resource="http://creativecommons.org/ns#Reproduction" />
        <cc:permits
           rdf:resource="http://creativecommons.org/ns#Distribution" />
        <cc:requires
           rdf:resource="http://creativecommons.org/ns#Notice" />
        <cc:requires
           rdf:resource="http://creativecommons.org/ns#Attribution" />
        <cc:permits
           rdf:resource="http://creativecommons.org/ns#DerivativeWorks" />
        <cc:requires
           rdf:resource="http://creativecommons.org/ns#ShareAlike" />
      </cc:License>
    </rdf:RDF>
  </metadata>
  <g
     transform="translate(-79.415306,-71.043672)"
     id="bimetrical-layer-1"
     inkscape:groupmode="layer"
     inkscape:label="Layer 1">
    <path
       d="m 81.654701,71.043672 c -1.236177,0 -2.239395,1.003214 -2.239395,2.239394 V 100.1558 c 0,1.2357 1.003218,2.2394 2.239395,2.2394 h 2.406847 v 2.59886 c 0,1.13529 0.914324,2.04961 2.049615,2.04961 H 108.8869 c 1.13529,0 2.04962,-0.91432 2.04962,-2.04961 V 77.739528 c 0,-1.135282 -0.91433,-2.049615 -2.04962,-2.049615 h -2.59662 v -2.406847 c 0,-1.23618 -1.006,-2.239394 -2.24163,-2.239394 z m 10.219053,4.478789 h 8.816916 c 0.61781,0 1.11858,0.503007 1.11858,1.120814 0,0.617881 -0.50077,1.118581 -1.11858,1.118581 h -8.816916 c -0.618387,0 -1.120815,-0.5007 -1.120815,-1.118581 -5.3e-5,-0.61775 0.502428,-1.120814 1.120815,-1.120814 z m 14.416526,2.337633 h 1.65666 c 0.45411,0 0.82163,0.365286 0.82163,0.8194 v 25.374596 c 0,0.45413 -0.36752,0.8194 -0.82163,0.8194 H 87.051128 c -0.454113,0 -0.819399,-0.36527 -0.819399,-0.8194 v -1.65889 h 17.816921 c 1.23563,0 2.24163,-1.00378 2.24163,-2.2394 z m -21.275371,4.38055 h 15.675761 c 0.61781,0 1.11858,0.503008 1.11858,1.120814 0,0.617882 -0.50077,1.118582 -1.11858,1.118582 H 85.014909 c -0.618385,0 -1.120814,-0.5007 -1.120814,-1.118582 -5.3e-5,-0.617749 0.502429,-1.120814 1.120814,-1.120814 z m 0,6.718186 h 15.675761 c 0.61781,0 1.11858,0.502948 1.11858,1.120812 0,0.617824 -0.50077,1.118582 -1.11858,1.118582 H 85.014909 c -0.618385,0 -1.120814,-0.500758 -1.120814,-1.118582 -5.3e-5,-0.617811 0.502429,-1.120812 1.120814,-1.120812 z m 0,6.718183 h 15.675761 c 0.61781,0 1.11858,0.50301 1.11858,1.120813 0,0.617882 -0.50077,1.118582 -1.11858,1.118582 H 85.014909 c -0.618385,0 -1.120814,-0.5007 -1.120814,-1.118582 -5.3e-5,-0.617803 0.502429,-1.120813 1.120814,-1.120813 z"
       style="fill:#ffffff;fill-opacity:1;stroke-width:0.502424"
       id="bimetrical-path-document-2" />
  </g>
</svg>
