<svg id="svg" xmlns="http://www.w3.org/2000/svg" xmlns:xlink="http://www.w3.org/1999/xlink" width="400" height="416.40625" viewBox="0, 0, 400,416.40625"><g id="svgg"><path id="path0" d="M110.470 81.248 C 92.300 83.912,77.194 97.492,72.654 115.243 C 71.245 120.754,71.094 123.914,71.094 147.922 L 71.094 174.501 62.599 182.536 C 39.553 204.334,39.292 224.688,61.776 246.669 L 71.094 255.778 71.094 281.652 C 71.094 317.113,72.751 323.697,84.683 335.629 C 99.087 350.033,126.905 354.452,133.530 343.389 C 136.591 338.277,136.083 331.957,132.289 327.971 C 128.914 324.424,127.583 323.966,119.017 323.407 C 99.034 322.102,96.882 317.558,96.858 276.619 C 96.838 243.296,96.882 243.561,90.552 237.981 C 66.610 216.876,66.277 214.797,84.132 197.950 C 97.980 184.885,96.875 188.792,96.875 152.884 L 96.875 122.906 99.285 118.083 C 103.280 110.088,108.422 107.143,119.823 106.320 C 132.337 105.417,137.669 99.955,135.153 90.615 C 132.820 81.947,125.262 79.079,110.470 81.248 M272.931 81.267 C 267.376 83.001,263.237 90.908,264.816 96.773 C 266.672 103.665,269.688 105.573,279.859 106.290 C 289.480 106.968,295.056 109.426,298.719 114.604 C 302.986 120.637,303.002 120.773,303.066 152.879 C 303.137 188.494,301.986 184.469,315.972 198.047 C 333.633 215.192,333.352 216.909,309.448 237.981 C 303.120 243.559,303.162 243.304,303.138 276.563 C 303.115 308.230,302.946 309.784,298.965 315.003 C 294.517 320.835,290.335 322.796,281.056 323.402 C 270.490 324.092,266.307 326.693,264.771 333.531 C 262.624 343.087,268.844 349.219,280.685 349.219 C 302.474 349.219,318.729 338.185,326.447 318.157 L 328.477 312.891 328.743 284.284 L 329.009 255.678 338.275 246.619 C 360.628 224.766,360.414 204.335,337.604 182.723 L 329.297 174.853 328.879 146.215 C 328.359 110.546,326.264 103.221,313.440 92.219 C 303.315 83.534,283.145 78.081,272.931 81.267 M138.396 197.770 C 132.420 199.490,126.563 207.989,126.563 214.940 C 126.563 233.914,152.685 240.038,161.145 223.047 C 168.399 208.478,154.571 193.114,138.396 197.770 M192.578 198.337 C 173.016 207.272,182.513 236.659,203.685 232.704 C 224.828 228.754,221.550 196.909,200.000 196.909 C 197.500 196.909,194.396 197.506,192.578 198.337 M246.820 199.023 C 229.891 207.598,236.053 232.910,255.069 232.910 C 271.652 232.910,279.605 213.906,267.915 202.216 C 262.055 196.356,254.380 195.194,246.820 199.023 " stroke="none" fill="#fff3e9" fill-rule="evenodd"></path></g></svg>